PathFileType	4	(X/Y/Z)	./resultDataOpenSim/trcMotMarkerGrf/sub10/qtm-05-06.trc
DataRate	CameraRate	NumFrames	NumMarkers	Units	OrigDataRate	OrigDataStartFrame	OrigNumFrames
250.000000	250.000000	10	24	m	250.000000	252	502
Frame#	Time	L.Toe.Tip			R.Toe.Tip			L.Ankle.Lat			R.Ankle.Lat			L.Ankle.Med			R.Ankle.Med			L.Heel			R.Heel			L.Knee.Lat			R.Knee.Lat			L.Knee.Med			R.Knee.Med			L.Thigh.Upper			R.Thigh.Upper			L.ASIS			R.ASIS			V.Sacral			L.Acromium			R.Acromium			C7			L.Elbow			R.Elbow			L.Wrist.Lat			R.Wrist.Lat
		X1	Y1	Z1	X2	Y2	Z2	X3	Y3	Z3	X4	Y4	Z4	X5	Y5	Z5	X6	Y6	Z6	X7	Y7	Z7	X8	Y8	Z8	X9	Y9	Z9	X10	Y10	Z10	X11	Y11	Z11	X12	Y12	Z12	X13	Y13	Z13	X14	Y14	Z14	X15	Y15	Z15	X16	Y16	Z16	X17	Y17	Z17	X18	Y18	Z18	X19	Y19	Z19	X20	Y20	Z20	X21	Y21	Z21	X22	Y22	Z22	X23	Y23	Z23	X24	Y24	Z24

252	1.004	0.060174419	-0.056584135	-0.10840072	0.13028944	0.089624866	0.05363468	-0.059107401	-0.0028013654	-0.16552408	0.014307376	0.17224908	0.032632017	-0.064756284	0.02205348	-0.084071502	0.075760243	0.17441603	-0.032085217	-0.13197586	-0.016056749	-0.13261627	-0.022409143	0.1651955	-0.029812316	0.031383375	0.37742741	-0.19051018	0.24608791	0.46671862	0.11078796	0.017330869	0.35626458	-0.069434961	0.3067327	0.47736659	-0.0087051152	0.084273091	0.77278161	-0.24478337	0.021411945	0.7966053	0.12903653	0.13196879	0.8777792	-0.17076486	0.096340093	0.89141463	0.065591859	-0.080809941	0.90178278	-0.078004985	0.096031475	1.3494658	-0.22444714	0.03343606	1.3640164	0.090934229	-0.01149654	1.3854683	-0.091974398	0.029679601	1.0133938	-0.31114933	-0.092204409	1.0394509	0.11659552	0.21750425	0.84699989	-0.31915841	-0.021454915	0.81819043	0.19391648
253	1.008	0.060257839	-0.05651579	-0.10850399	0.1505674	0.088807968	0.055659829	-0.059044829	-0.0022347393	-0.16533813	0.032091479	0.16713908	0.033897775	-0.064361549	0.022637869	-0.083951496	0.093362906	0.17082774	-0.031032992	-0.13165403	-0.015221542	-0.13237998	-0.0040946026	0.15838507	-0.028584419	0.031261913	0.37785691	-0.19065856	0.25538992	0.4697735	0.11055651	0.017512528	0.35686122	-0.069595819	0.31485292	0.4815659	-0.0089803178	0.086910237	0.77309438	-0.24488705	0.028320504	0.7983166	0.12981534	0.13549142	0.87838252	-0.17157145	0.10197061	0.89245337	0.065136572	-0.077416459	0.90252587	-0.077010674	0.10092009	1.3502292	-0.22404499	0.039076926	1.3646373	0.091382317	-0.0061443514	1.3861211	-0.091278506	0.03534027	1.0136654	-0.30975844	-0.089110498	1.0414259	0.11691787	0.22822805	0.8500809	-0.31744145	-0.020987665	0.81959239	0.19538381
254	1.012	0.060225095	-0.056448788	-0.10848781	0.17095196	0.08805021	0.057632107	-0.05911436	-0.0016710902	-0.16499689	0.049896769	0.16208746	0.035328374	-0.063963713	0.023198357	-0.083812639	0.11112116	0.16723887	-0.030057095	-0.1314903	-0.014372687	-0.13202376	0.014765075	0.15148901	-0.027611913	0.031192545	0.37819698	-0.19076232	0.26453652	0.47266822	0.11027842	0.017542112	0.35745392	-0.069647629	0.32276284	0.4855566	-0.0093110627	0.089531366	0.77333858	-0.24498305	0.03521862	0.7999445	0.13063867	0.13910668	0.87894195	-0.1723156	0.10756858	0.89340853	0.064706991	-0.073934529	0.90330963	-0.075969217	0.10582102	1.3508971	-0.22365542	0.044727668	1.3651642	0.091834244	-0.00085825202	1.3866882	-0.090428236	0.040920001	1.013934	-0.3084407	-0.086013478	1.0432691	0.11724904	0.23890469	0.85314804	-0.31568308	-0.02049674	0.8209475	0.19682461
255	1.016	0.06005093	-0.056404079	-0.10831303	0.19146473	0.087344804	0.059540886	-0.059309743	-0.0010890072	-0.16450412	0.06761786	0.15706823	0.036884789	-0.063521972	0.023744846	-0.083688038	0.12902753	0.16369994	-0.028955156	-0.1315228	-0.013490173	-0.13153514	0.033960426	0.14459404	-0.026807291	0.031179518	0.37845217	-0.19082308	0.27349574	0.47537018	0.10994119	0.017646827	0.35800336	-0.069653296	0.33046474	0.48932407	-0.0096940457	0.092139234	0.77351398	-0.2450703	0.04213578	0.80149885	0.13150615	0.14281208	0.87946128	-0.1729919	0.1131365	0.89428296	0.064307513	-0.070119219	0.90415886	-0.074846881	0.11073673	1.3514831	-0.22328277	0.050385879	1.3655948	0.092282323	0.0044344276	1.3871754	-0.089581942	0.046643292	1.0142248	-0.30709717	-0.082896273	1.0449863	0.11758323	0.24953493	0.85619857	-0.31388658	-0.02001359	0.82225486	0.19821615
256	1.02	0.059844877	-0.056383525	-0.10808944	0.21204169	0.086714674	0.061405702	-0.059518084	-0.00051502098	-0.16397422	0.085344184	0.15203641	0.038445652	-0.062994453	0.02426769	-0.083591611	0.14705688	0.16020272	-0.027726206	-0.1316778	-0.012606133	-0.13096324	0.053198696	0.13784677	-0.025982718	0.031226763	0.3786272	-0.1908422	0.28227543	0.4778696	0.10957062	0.018033975	0.35844624	-0.069706304	0.3379458	0.49284753	-0.010117997	0.094736517	0.77362018	-0.24514771	0.049043962	0.80296526	0.13237903	0.14652055	0.87990984	-0.17364751	0.11868617	0.89507663	0.063937109	-0.065735137	0.90503123	-0.07369013	0.11566222	1.3519972	-0.22292169	0.056048206	1.3659253	0.092730418	0.0097673538	1.3875768	-0.088826238	0.052919401	1.0145417	-0.30564767	-0.079756336	1.0465959	0.11791701	0.26011477	0.85922955	-0.31205578	-0.019569782	0.82350727	0.19955304
257	1.024	0.059718515	-0.056372233	-0.10793934	0.23261883	0.086182557	0.063238494	-0.059586987	2.5180337e-06	-0.16356311	0.10331576	0.14698966	0.039852538	-0.062411948	0.02474879	-0.083492994	0.16517609	0.15669186	-0.026516653	-0.13180759	-0.011794087	-0.13038672	0.072373316	0.1313272	-0.025073091	0.031337803	0.37872706	-0.19082098	0.2908702	0.48017634	0.10917136	0.018667249	0.3587584	-0.069834552	0.34518233	0.4961013	-0.010572679	0.097325852	0.77365663	-0.24521416	0.055930622	0.80433879	0.1332419	0.15016859	0.88026001	-0.17435937	0.12423773	0.89578612	0.063591634	-0.060868907	0.90574866	-0.072620351	0.12058606	1.3524366	-0.22256351	0.061717506	1.3661505	0.093184581	0.015142492	1.3878852	-0.08815118	0.060197929	1.014846	-0.30408875	-0.076596396	1.0481098	0.11825102	0.27064434	0.86223956	-0.31018692	-0.01912854	0.82470281	0.20086721
258	1.028	0.059675638	-0.05635916	-0.10787517	0.25316417	0.085767989	0.065034874	-0.059523231	0.00046744364	-0.16327421	0.12172305	0.14197294	0.04104406	-0.061877116	0.025180883	-0.083338816	0.18335486	0.15317615	-0.025390774	-0.1318237	-0.011094686	-0.12983819	0.091568354	0.12501149	-0.02409335	0.031515972	0.3787569	-0.19076078	0.29925641	0.48229333	0.10872919	0.019376362	0.35896687	-0.069990611	0.35217238	0.49906818	-0.011050832	0.099909874	0.77362278	-0.24526855	0.062736721	0.80561382	0.1340663	0.15373736	0.88050453	-0.17521829	0.12982237	0.89641372	0.063279019	-0.055968024	0.90609197	-0.071689018	0.12549497	1.3527907	-0.22220002	0.067401778	1.366267	0.093642155	0.020548238	1.3880984	-0.087508563	0.068422426	1.0150466	-0.30255809	-0.07341769	1.049532	0.11858837	0.28113102	0.8652282	-0.30827147	-0.018603198	0.82585376	0.2022086
259	1.032	0.059662993	-0.056346556	-0.10784281	0.27364925	0.08549695	0.066786595	-0.059457944	0.00092558348	-0.16299153	0.14053575	0.13702737	0.042137926	-0.061464715	0.025571246	-0.083100029	0.20159079	0.14976289	-0.024280404	-0.13174885	-0.01049169	-0.12929285	0.110862	0.11884464	-0.022998972	0.031764577	0.37872193	-0.19066295	0.30741717	0.48420208	0.1082423	0.020085555	0.35910854	-0.070113952	0.35894784	0.50174353	-0.011544334	0.10249123	0.77351812	-0.24530977	0.069353432	0.80677339	0.13479629	0.15723378	0.88063951	-0.17621187	0.13547464	0.89696864	0.063020932	-0.051412071	0.9060051	-0.070765431	0.13038843	1.3530486	-0.22182793	0.073101376	1.3662758	0.094098507	0.025966781	1.3882151	-0.086867679	0.076816352	1.0150657	-0.30120979	-0.070216205	1.0508618	0.1189297	0.29157313	0.86819253	-0.30631543	-0.01795697	0.82696882	0.2035888
260	1.036	0.059644741	-0.056344614	-0.10779636	0.29404551	0.085384736	0.068477651	-0.05943898	0.0013839765	-0.16267188	0.15954254	0.13218392	0.043321226	-0.061168773	0.025937236	-0.082769775	0.21989849	0.1465445	-0.023120235	-0.13164952	-0.0099567481	-0.12872476	0.13027164	0.11280514	-0.02174523	0.032086957	0.37862731	-0.19052889	0.3153493	0.48588118	0.10772126	0.020815906	0.35920014	-0.070156407	0.36554486	0.50412341	-0.012042819	0.10507256	0.77334212	-0.24533673	0.075779336	0.80781688	0.13542978	0.16070678	0.88065267	-0.17709369	0.14119887	0.89745526	0.062824838	-0.047219244	0.90563045	-0.069688055	0.13528178	1.3532027	-0.22145065	0.078810074	1.3661784	0.094551653	0.031383164	1.3882326	-0.086221272	0.084456114	1.0149371	-0.29995681	-0.066983292	1.052095	0.11927073	0.30194986	0.87112646	-0.304345	-0.017214946	0.82804174	0.20498134
261	1.04	0.0596257	-0.05635964	-0.10773297	0.3143549	0.085409469	0.070071823	-0.059434695	0.0018020767	-0.16234127	0.17855486	0.12749472	0.044660327	-0.060943046	0.026294576	-0.082336837	0.23826837	0.14351956	-0.021916119	-0.13157682	-0.0094787802	-0.12813412	0.14978901	0.10691228	-0.020354195	0.032486476	0.3784782	-0.19035998	0.32307522	0.48733618	0.10718911	0.021582027	0.3592353	-0.070057507	0.37197976	0.50619667	-0.012539235	0.10765651	0.77309426	-0.24534831	0.082137417	0.80876798	0.13602956	0.16420862	0.88054083	-0.17760589	0.14695056	0.89786753	0.062663289	-0.043205479	0.90515145	-0.06844015	0.14019028	1.3532498	-0.22107511	0.084522367	1.3659719	0.094999689	0.036795665	1.3881488	-0.085569324	0.090875434	1.0147932	-0.29847357	-0.063711668	1.0532262	0.11960663	0.31224306	0.87402675	-0.30237894	-0.016400396	0.82906052	0.20636924
